<svg width="15" height="13" viewBox="0 0 15 13" fill="none" xmlns="http://www.w3.org/2000/svg">
<g clip-path="url(#clip0)">
<path d="M7.60037 11.514C7.39537 11.514 7.19772 11.4523 7.0437 11.3403C6.46197 10.9177 5.90112 10.5206 5.4063 10.1703L5.40377 10.1685C3.95303 9.14143 2.70026 8.25449 1.82861 7.38078C0.854235 6.40403 0.400391 5.47794 0.400391 4.46623C0.400391 3.48327 0.806115 2.57644 1.54275 1.91264C2.28817 1.241 3.31099 0.871094 4.42313 0.871094C5.25436 0.871094 6.0156 1.08941 6.68565 1.51992C7.02381 1.73723 7.33033 2.00318 7.60037 2.3134C7.87053 2.00318 8.17693 1.73723 8.5152 1.51992C9.18526 1.08941 9.9465 0.871094 10.7777 0.871094C11.8898 0.871094 12.9127 1.241 13.6581 1.91264C14.3947 2.57644 14.8004 3.48327 14.8004 4.46623C14.8004 5.47794 14.3466 6.40403 13.3722 7.38069C12.5006 8.25449 11.2479 9.14134 9.79741 10.1683C9.30171 10.5191 8.73998 10.9169 8.15694 11.3404C8.00302 11.4523 7.80527 11.514 7.60037 11.514ZM4.42313 1.57185C3.54939 1.57185 2.74673 1.86153 2.16281 2.3876C1.57021 2.92161 1.24381 3.65979 1.24381 4.46623C1.24381 5.31712 1.62448 6.07811 2.47801 6.93366C3.30297 7.76064 4.53003 8.62933 5.95078 9.63519L5.95342 9.63702C6.45011 9.98867 7.01315 10.3873 7.59916 10.813C8.18869 10.3865 8.75262 9.98721 9.2503 9.63501C10.6709 8.62915 11.8979 7.76064 12.7228 6.93366C13.5763 6.07811 13.9569 5.31712 13.9569 4.46623C13.9569 3.65979 13.6305 2.92161 13.0379 2.3876C12.4541 1.86153 11.6514 1.57185 10.7777 1.57185C10.1377 1.57185 9.55 1.74088 9.03112 2.07419C8.56871 2.37136 8.24659 2.74702 8.05773 3.00987C7.96061 3.14504 7.78967 3.22572 7.60037 3.22572C7.41108 3.22572 7.24013 3.14504 7.14301 3.00987C6.95427 2.74702 6.63215 2.37136 6.16963 2.07419C5.65074 1.74088 5.06309 1.57185 4.42313 1.57185Z" fill="black"/>
</g>
<defs>
<clipPath id="clip0">
<rect width="14.4" height="11.9627" fill="white" transform="matrix(1 0 0 -1 0.400391 12.168)"/>
</clipPath>
</defs>
</svg>
